<?xml version="1.0" standalone="no"?>
<!DOCTYPE svg PUBLIC "-//W3C//DTD SVG 20010904//EN"
 "http://www.w3.org/TR/2001/REC-SVG-20010904/DTD/svg10.dtd">
<svg version="1.0" xmlns="http://www.w3.org/2000/svg"
 width="1500.000000pt" height="500.000000pt" viewBox="0 0 1500.000000 500.000000"
 preserveAspectRatio="xMidYMid meet">

<g transform="translate(0.000000,500.000000) scale(0.100000,-0.100000)"
fill="#952326" stroke="none">
<path d="M2090 4354 c-333 -22 -622 -56 -815 -95 -258 -52 -628 -153 -697
-190 -20 -11 -20 -14 -15 -442 6 -467 16 -616 66 -917 42 -254 75 -388 141
-583 141 -417 324 -720 610 -1008 74 -74 178 -169 230 -211 181 -142 416 -289
632 -392 l96 -47 139 69 c226 112 486 277 633 400 537 454 837 1035 950 1842
38 278 51 479 57 881 5 381 5 397 -13 407 -60 32 -408 129 -637 178 -386 82
-1014 131 -1377 108z m522 -1091 l3 -318 318 -3 317 -2 -2 -273 -3 -272 -317
-3 -318 -2 0 -315 0 -315 -272 2 -273 3 -2 310 -3 310 -315 3 -315 2 0 275 0
275 313 2 312 3 3 305 c1 168 4 311 7 318 3 9 68 12 275 12 l270 0 2 -317z"/>
<path d="M4990 3210 l0 -1020 260 0 260 0 0 1020 0 1020 -260 0 -260 0 0
-1020z"/>
<path d="M8640 3915 c0 -173 -2 -315 -5 -315 -3 0 -29 20 -59 44 -115 94 -243
131 -423 124 -209 -9 -347 -70 -493 -217 -165 -167 -240 -375 -227 -639 14
-316 161 -561 411 -688 107 -55 200 -75 351 -77 140 -2 201 10 297 59 49 25
120 89 150 134 16 24 17 22 17 -62 l1 -88 215 0 215 0 0 1020 0 1020 -225 0
-225 0 0 -315z m-205 -604 c86 -40 148 -99 188 -180 30 -61 32 -72 32 -171 0
-97 -2 -110 -31 -170 -38 -78 -103 -145 -181 -185 -54 -28 -65 -30 -173 -30
-107 0 -119 2 -172 29 -71 36 -141 105 -173 171 -51 105 -51 264 0 365 29 58
103 133 159 162 105 55 245 59 351 9z"/>
<path d="M9370 4060 l0 -170 230 0 230 0 0 170 0 170 -230 0 -230 0 0 -170z"/>
<path d="M6505 3756 c-75 -18 -151 -64 -206 -124 -27 -29 -49 -58 -49 -63 0
-5 -4 -9 -10 -9 -6 0 -10 33 -10 80 l0 80 -210 0 -210 0 0 -765 0 -765 224 0
224 0 5 473 c4 500 5 513 54 590 73 116 323 123 397 10 53 -80 56 -118 56
-615 l0 -458 230 0 230 0 0 468 c0 471 -8 649 -34 733 -59 193 -200 323 -394
364 -81 18 -228 18 -297 1z"/>
<path d="M10655 3759 c-255 -59 -442 -214 -548 -454 -43 -98 -58 -173 -64
-303 -7 -144 7 -243 48 -356 120 -331 408 -523 753 -503 179 10 308 71 387
181 l29 39 0 -86 0 -87 230 0 230 0 0 765 0 765 -230 0 -230 0 0 -82 0 -82
-49 55 c-92 103 -241 160 -416 158 -55 -1 -118 -5 -140 -10z m377 -448 c79
-37 159 -118 196 -198 23 -50 26 -71 26 -158 1 -93 -2 -105 -32 -167 -41 -84
-130 -168 -211 -199 -78 -30 -195 -30 -275 1 -70 27 -169 120 -204 192 -35 72
-48 157 -35 232 45 263 305 407 535 297z"/>
<path d="M12695 3756 c-75 -18 -151 -64 -206 -124 -27 -29 -49 -58 -49 -63 0
-5 -4 -9 -10 -9 -6 0 -10 33 -10 80 l0 80 -210 0 -210 0 0 -765 0 -765 224 0
224 0 5 473 c4 500 5 513 54 590 73 117 325 122 400 8 46 -68 47 -83 51 -588
l3 -483 230 0 231 0 -5 548 c-5 602 -6 615 -68 747 -40 85 -131 180 -208 219
-119 61 -317 84 -446 52z"/>
<path d="M9370 2955 l0 -765 230 0 230 0 0 765 0 765 -230 0 -230 0 0 -765z"/>
<path d="M8452 1984 c-156 -41 -298 -156 -366 -294 -84 -172 -85 -351 -4 -518
47 -97 161 -210 259 -257 228 -108 471 -74 649 91 54 50 120 132 120 148 0 3
-27 6 -59 6 -56 0 -61 -2 -89 -36 -44 -53 -139 -120 -207 -146 -84 -32 -225
-31 -307 1 -170 66 -299 233 -315 407 -17 187 96 383 271 469 180 89 392 51
536 -96 57 -58 59 -59 115 -59 l56 0 -23 41 c-57 101 -208 208 -344 243 -76
20 -220 20 -292 0z"/>
<path d="M10536 1985 c-186 -51 -347 -208 -407 -395 -32 -98 -30 -242 4 -338
34 -96 74 -158 157 -235 242 -229 610 -217 836 27 167 179 201 425 91 646 -65
131 -223 256 -373 295 -72 18 -240 19 -308 0z m234 -86 c174 -28 322 -157 380
-330 18 -53 21 -81 18 -165 -3 -93 -6 -107 -42 -179 -84 -170 -253 -276 -439
-275 -224 1 -430 180 -468 406 -39 239 133 486 375 539 77 17 96 17 176 4z"/>
<path d="M12335 1971 c-115 -55 -170 -144 -169 -271 0 -83 15 -123 68 -178 40
-43 80 -63 213 -107 176 -59 242 -117 251 -221 6 -73 -17 -132 -72 -182 -136
-125 -347 -53 -381 131 l-7 37 -54 0 c-61 0 -61 1 -39 -83 27 -103 81 -168
180 -214 51 -23 73 -28 145 -28 99 0 168 27 238 90 121 109 135 311 29 431
-55 63 -102 90 -223 130 -129 42 -174 65 -207 104 -69 82 -30 221 78 277 17 9
55 17 85 17 97 1 178 -64 198 -160 8 -39 8 -39 61 -42 l54 -3 -6 50 c-11 96
-77 183 -171 227 -77 36 -190 34 -271 -5z"/>
<path d="M13052 1970 c-68 -35 -116 -83 -144 -148 -16 -36 -19 -61 -16 -132 3
-79 6 -93 33 -132 44 -62 104 -98 237 -141 135 -44 203 -85 236 -142 33 -58
28 -164 -10 -223 -78 -117 -255 -135 -354 -37 -38 39 -53 68 -68 138 -6 25
-10 27 -58 27 l-51 0 6 -54 c19 -187 218 -313 415 -262 149 38 241 148 250
296 10 178 -96 296 -319 355 -87 23 -158 62 -185 102 -46 68 -39 154 18 219
115 131 315 72 353 -103 6 -32 8 -33 56 -33 49 0 49 0 49 33 0 94 -64 188
-162 236 -53 27 -72 31 -143 31 -71 0 -90 -4 -143 -30z"/>
<path d="M4920 1430 l0 -560 55 0 55 0 0 510 0 510 124 0 c141 0 210 -11 274
-42 153 -77 180 -291 51 -401 -51 -44 -123 -66 -237 -74 -51 -3 -91 -9 -90
-13 2 -4 84 -116 183 -248 l180 -241 68 -1 c37 0 67 2 67 3 0 2 -69 96 -154
207 l-155 204 62 16 c114 28 196 93 241 189 17 37 21 66 21 141 0 84 -3 102
-28 152 -16 33 -49 76 -78 102 -91 82 -199 105 -486 106 l-153 0 0 -560z"/>
<path d="M5807 1983 c-4 -3 -7 -255 -7 -560 l0 -553 305 0 305 0 0 50 0 50
-250 0 -250 0 0 205 0 205 240 0 240 0 0 50 0 50 -240 0 -240 0 0 205 0 205
250 0 250 0 0 50 0 50 -298 0 c-164 0 -302 -3 -305 -7z"/>
<path d="M6590 1429 l0 -561 233 5 c175 4 247 9 291 22 184 52 327 186 388
363 32 93 31 247 -1 342 -31 89 -80 167 -143 226 -133 126 -277 164 -625 164
l-143 0 0 -561z m489 437 c90 -25 155 -63 213 -124 63 -66 91 -116 113 -199
53 -203 -44 -431 -220 -517 -80 -39 -185 -56 -346 -56 l-139 0 0 461 0 462
163 -6 c96 -3 184 -12 216 -21z"/>
<path d="M9260 1431 l0 -561 55 0 55 0 0 511 0 511 158 -5 c181 -5 227 -17
295 -78 55 -47 79 -105 79 -184 1 -75 -25 -129 -83 -179 -54 -46 -111 -64
-232 -73 l-98 -8 185 -247 186 -248 65 0 c36 0 65 2 65 5 0 3 -68 96 -152 206
-83 109 -149 201 -147 203 2 1 26 8 53 15 103 25 183 84 232 173 27 49 29 61
29 158 0 94 -3 110 -27 155 -48 90 -127 153 -230 181 -35 10 -127 17 -270 21
l-218 6 0 -562z"/>
<path d="M11430 1430 l0 -560 305 0 305 0 0 50 0 50 -250 0 -250 0 0 205 0
205 240 0 240 0 0 50 0 50 -240 0 -240 0 0 205 0 205 251 0 250 0 -3 48 -3 47
-302 3 -303 2 0 -560z"/>
</g>
</svg>
