<?xml version="1.0" standalone="no"?>
<!DOCTYPE svg PUBLIC "-//W3C//DTD SVG 20010904//EN"
 "http://www.w3.org/TR/2001/REC-SVG-20010904/DTD/svg10.dtd">
<svg version="1.0" xmlns="http://www.w3.org/2000/svg"
 width="2560.000000pt" height="1440.000000pt" viewBox="0 0 2560.000000 1440.000000"
 preserveAspectRatio="xMidYMid meet">

<g transform="translate(0.000000,1440.000000) scale(0.100000,-0.100000)"
fill="#000000" stroke="none">
<path d="M11129 8729 c-774 -60 -1445 -653 -1611 -1427 -21 -96 -23 -133 -23
-352 1 -209 4 -262 23 -360 74 -391 216 -665 487 -936 307 -307 637 -468 1085
-529 163 -23 414 -16 580 15 664 123 1194 597 1400 1253 l28 87 -467 0 -467 0
-18 -37 c-69 -145 -221 -322 -350 -408 -315 -209 -732 -192 -1027 43 -254 201
-389 498 -389 852 0 293 92 543 271 735 167 179 364 273 609 291 358 27 708
-191 874 -544 l30 -62 466 0 467 0 -18 76 c-26 111 -46 168 -99 281 -176 375
-559 736 -950 895 -180 73 -365 113 -595 128 -164 11 -155 11 -306 -1z"/>
<path d="M17994 8729 c-402 -29 -805 -204 -1092 -474 -319 -300 -521 -717
-571 -1177 -14 -124 -14 -339 -1 -448 77 -626 517 -1153 1165 -1395 345 -129
759 -160 1115 -83 300 64 605 229 838 452 455 436 652 1086 521 1719 -29 142
-80 282 -155 427 -284 551 -836 917 -1478 979 -121 12 -177 12 -342 0z m306
-784 c200 -30 358 -112 510 -264 92 -92 140 -159 196 -271 225 -455 104 -1035
-277 -1329 -104 -81 -198 -129 -314 -163 -70 -20 -101 -23 -245 -22 -137 1
-179 4 -244 22 -424 116 -716 527 -716 1006 0 352 149 661 412 857 198 147
427 202 678 164z"/>
<path d="M21385 8733 c-142 -8 -337 -56 -477 -118 -275 -121 -497 -342 -588
-587 -93 -252 -69 -558 62 -781 57 -97 207 -246 328 -326 110 -73 331 -183
475 -236 204 -77 423 -190 507 -264 24 -22 57 -63 73 -92 27 -48 30 -63 30
-139 0 -71 -4 -94 -26 -140 -102 -217 -390 -266 -549 -94 -60 65 -100 158
-119 275 l-16 99 -443 0 -443 0 6 -102 c14 -245 44 -378 120 -533 139 -285
405 -472 792 -557 84 -18 132 -21 338 -22 267 -1 321 5 505 61 264 79 468 233
586 440 96 169 135 328 135 553 0 293 -66 467 -246 646 -154 153 -339 262
-813 478 -382 174 -472 256 -472 425 0 172 166 295 362 269 133 -17 216 -106
249 -266 l13 -62 442 0 442 0 -4 63 c-16 223 -67 393 -157 527 -141 208 -391
373 -675 444 -96 24 -283 48 -351 44 -20 -1 -58 -3 -86 -5z"/>
<path d="M23960 8729 c-123 -10 -306 -58 -429 -113 -313 -138 -545 -390 -623
-681 -31 -117 -31 -346 1 -464 80 -298 281 -503 686 -697 85 -41 160 -74 166
-74 14 0 255 -102 333 -142 112 -57 217 -130 257 -181 97 -123 88 -292 -22
-412 -156 -169 -411 -147 -535 48 -44 67 -84 204 -84 282 l0 35 -445 0 -445 0
0 -34 c0 -97 24 -303 45 -389 99 -404 401 -670 870 -768 144 -30 447 -37 609
-15 134 19 319 72 409 117 271 137 440 343 514 628 31 118 42 352 24 480 -56
380 -303 613 -953 900 -467 206 -568 289 -568 469 0 112 59 195 176 249 59 27
160 33 232 13 96 -25 177 -129 203 -260 l12 -60 438 0 439 0 0 64 c0 68 -22
212 -44 286 -117 393 -499 669 -995 720 -113 11 -131 11 -271 -1z"/>
<path d="M810 6921 l0 -1751 425 0 425 0 2 571 3 572 409 -572 408 -571 509 0
509 0 -475 595 c-261 327 -475 597 -475 600 0 3 8 5 18 5 10 0 55 11 100 24
479 144 774 589 748 1131 -15 330 -131 604 -345 815 -174 173 -347 250 -681
306 -92 15 -197 18 -842 21 l-738 4 0 -1750z m1423 936 c233 -81 355 -260 332
-490 -21 -222 -127 -357 -333 -425 -72 -24 -92 -26 -324 -30 l-248 -4 0 492 0
492 248 -4 c237 -4 250 -5 325 -31z"/>
<path d="M3800 6920 l0 -1750 970 0 970 0 0 390 0 390 -542 2 -543 3 0 300 0
300 528 3 527 2 0 390 0 390 -527 2 -528 3 0 270 0 270 543 3 542 2 0 390 0
390 -970 0 -970 0 0 -1750z"/>
<path d="M6160 6920 l0 -1752 738 5 c764 5 827 8 1032 52 500 106 887 396
1081 810 116 247 171 526 171 875 1 203 -11 316 -49 489 -92 422 -332 781
-667 1004 -140 94 -292 157 -479 202 -244 58 -251 58 -1069 62 l-758 4 0
-1751z m1565 936 c232 -70 404 -232 495 -468 61 -157 88 -390 70 -601 -39
-457 -255 -736 -630 -813 -67 -13 -141 -17 -345 -18 l-260 -1 -3 969 -2 968
292 -4 c283 -5 296 -6 383 -32z"/>
<path d="M13470 6920 l0 -1750 425 0 425 0 0 566 c0 448 3 565 13 562 6 -3
192 -257 412 -566 l400 -561 508 -1 508 0 -19 28 c-11 15 -223 281 -471 592
-248 310 -451 567 -451 570 0 4 33 14 73 23 395 94 698 429 773 857 20 114 19
342 -1 461 -41 240 -157 469 -319 633 -190 193 -430 288 -821 326 -55 5 -405
10 -777 10 l-678 0 0 -1750z m1400 947 c137 -41 253 -123 304 -217 40 -73 56
-142 56 -240 0 -207 -88 -358 -253 -435 -113 -53 -194 -65 -442 -65 l-215 0 0
491 0 491 248 -5 c185 -3 261 -8 302 -20z"/>
</g>
</svg>
